<?xml version="1.0" encoding="UTF-8" standalone="no"?>
<!-- Created with Inkscape (http://www.inkscape.org/) -->

<svg
   width="96.389305mm"
   height="96.674309mm"
   viewBox="0 0 96.389305 96.674309"
   version="1.1"
   id="svg1"
   xml:space="preserve"
   inkscape:version="1.3.2 (091e20e, 2023-11-25, custom)"
   sodipodi:docname="earth.svg"
   xmlns:inkscape="http://www.inkscape.org/namespaces/inkscape"
   xmlns:sodipodi="http://sodipodi.sourceforge.net/DTD/sodipodi-0.dtd"
   xmlns="http://www.w3.org/2000/svg"
   xmlns:svg="http://www.w3.org/2000/svg"><sodipodi:namedview
     id="namedview1"
     pagecolor="#ffffff"
     bordercolor="#000000"
     borderopacity="0.25"
     inkscape:showpageshadow="2"
     inkscape:pageopacity="0.0"
     inkscape:pagecheckerboard="0"
     inkscape:deskcolor="#d1d1d1"
     inkscape:document-units="mm"
     inkscape:zoom="1.4142136"
     inkscape:cx="274.00388"
     inkscape:cy="520.07704"
     inkscape:window-width="1920"
     inkscape:window-height="1009"
     inkscape:window-x="-8"
     inkscape:window-y="-8"
     inkscape:window-maximized="1"
     inkscape:current-layer="layer1" /><defs
     id="defs1" /><g
     inkscape:label="Layer 1"
     inkscape:groupmode="layer"
     id="layer1"
     transform="translate(-43.107011,-101.29664)"><ellipse
       style="display:inline;fill:#000000;fill-opacity:1;stroke:none;stroke-width:1.83332;stroke-linecap:round;paint-order:stroke fill markers"
       id="path1"
       cx="91.449875"
       cy="154.83817"
       rx="48.272888"
       ry="48.259022"
       transform="matrix(0.99837933,-0.05690964,0,1,0,0)" /><ellipse
       style="display:inline;fill:#2894e7;fill-opacity:1;stroke:none;stroke-width:1.76022;stroke-linecap:round;paint-order:stroke fill markers"
       id="ellipse1"
       cx="91.541985"
       cy="154.60486"
       rx="46.298615"
       ry="46.384445"
       transform="matrix(0.99837238,-0.05703152,0,1,0,0)" /><path
       style="display:inline;fill:#37c837;fill-opacity:1;stroke:#000000;stroke-width:1.79;stroke-linecap:round;stroke-opacity:1;paint-order:stroke fill markers"
       d="m 62.559964,115.02813 c 0,0 1.415589,3.60748 1.461254,5.57104 0.04566,1.96356 -1.552583,4.70341 -1.689576,6.39299 -0.136994,1.68957 -0.136994,2.92251 -0.136994,2.92251 0,0 -1.643912,1.87223 -2.511531,3.24216 -0.867619,1.36992 -1.369925,4.47509 -1.369925,4.47509 l -0.319651,1.23293 0.867622,-0.36531 0.502306,-0.36532 c 0,0 -0.887238,2.97076 -0.08,4.29463 0.807236,1.32387 1.582184,1.19471 1.711341,1.8405 0.129159,0.64579 0.09687,2.74461 0.516633,4.10076 0.419762,1.35616 1.969656,7.16827 3.261236,7.71719 1.291579,0.54892 1.16242,-0.0323 1.16242,-1.00098 0,-0.96868 -0.161446,-5.36005 0.129159,-6.4256 0.290605,-1.06555 1.130131,-1.96966 1.130131,-1.96966 0,0 2.945834,11.26143 7.375263,12.72268 4.429426,1.46126 7.123615,0.0457 8.950182,-0.22832 1.826569,-0.27398 6.71264,-0.59363 6.71264,-0.59363 0,0 -2.921746,3.3399 -3.438377,5.43872 -0.516633,2.09881 -1.905079,5.29547 -1.033264,7.32971 0.871816,2.03423 -0.140446,4.62963 1.183818,6.63886 1.32426,2.00922 3.790129,3.79013 4.612084,3.92712 0.821957,0.13699 4.201107,1.00461 5.616697,1.09594 1.415592,0.0913 3.607468,0.18265 3.881458,0.27398 0.27398,0.0913 0.82195,1.59825 1.18727,1.73524 0.36531,0.137 0.95895,-0.18265 0.95895,-0.18265 l 0.95894,2.00922 c 0,0 -0.91328,1.32426 -1.09594,2.46587 -0.18265,1.1416 -0.0299,1.99092 -0.41802,3.0412 -0.38815,1.05028 -0.90221,1.67849 -0.90221,1.67849 0,0 2.68054,-0.67779 4.24868,-1.2736 1.56814,-0.5958 3.7711,-1.85479 3.7711,-1.85479 0,0 2.05477,-1.47278 2.31309,-1.98941 0.25832,-0.51663 2.48629,-6.87766 2.7446,-7.23284 0.25832,-0.35519 2.90606,-1.93737 4.74656,-3.29353 1.8405,-1.35616 3.22894,-3.03521 2.84147,-4.00389 -0.38747,-0.96869 -1.61447,-0.74266 -2.19568,-1.90508 -0.58121,-1.16242 -0.96869,-2.61545 -0.96869,-2.61545 0,0 -1.13013,-0.96868 -1.58218,-2.42171 -0.45205,-1.45303 -0.22603,-3.13208 -0.22603,-3.13208 l -0.96868,-1.35616 c 0,0 -4.32134,-7.8733 -14.08897,-7.25001 -8.404052,0.53628 -9.556479,1.54095 -9.556479,1.54095 l -2.557457,-2.79921 c 0,0 -0.807236,-0.0484 -1.404591,-0.82338 -0.597355,-0.77495 -1.014106,-1.75415 -1.014106,-1.75415 0,0 -1.061691,0.13699 -2.374537,0.0228 -1.312847,-0.11416 -1.849401,-0.2854 -1.883648,-0.47947 -0.03425,-0.19407 0.605049,-1.24435 0.422394,-2.14622 -0.182658,-0.90187 -1.390044,-3.9656 -0.816904,-4.03825 0.573138,-0.0727 2.518577,3.66485 3.196656,3.55184 0.67808,-0.11301 1.832769,-2.3676 1.718609,-3.39505 -0.11416,-1.02744 -0.319648,-2.991 -0.456642,-3.28782 -0.136993,-0.29681 -1.095941,-1.50692 -0.707794,-2.67135 0.388146,-1.16444 2.674776,-2.04396 2.820077,-3.36783 0.145304,-1.32387 0.490577,-4.02978 0.307919,-5.10288 -0.182655,-1.07311 -0.616466,-1.46126 -0.159824,-1.87224 0.456642,-0.41097 2.063734,-1.42014 2.499641,-1.46858 0.435909,-0.0484 1.679053,0 1.792068,-0.27446 0.113011,-0.27446 0.758801,-2.61544 0.758801,-2.61544 0,0 1.420735,0.12915 1.856644,0.25831 0.435909,0.12916 2.018091,0.72651 2.018091,0.72651 l 0.447334,-0.17673 c 0,0 1.153018,-0.81054 2.385948,-1.29001 1.23294,-0.47948 2.28322,-1.05028 2.14622,-1.75807 -0.13699,-0.7078 -1.52975,-1.66675 -2.21471,-1.66675 -0.68497,0 -1.50692,0.54797 -2.762683,0.11416 -1.255765,-0.43381 -0.922359,-1.45446 -1.116095,-2.16483 -0.193735,-0.71037 -1.16242,-1.35616 -2.227974,-1.42074 -1.065551,-0.0646 -3.390394,0.0969 -4.407511,-0.69422 -1.017119,-0.79109 -1.004533,-2.37577 -1.586751,-2.9009 -0.582218,-0.52514 -3.013837,-0.49089 -3.207912,-0.83338 -0.194071,-0.34248 0.856205,-2.02064 0.559388,-2.52294 -0.296818,-0.50231 -2.694189,-0.33107 -2.694189,-0.33107 0,0 -0.665463,-0.91807 -0.253871,-1.562 0.149547,-0.23396 -0.105654,-0.39615 -0.170971,-0.56804 -0.306746,-0.80723 -2.009642,-0.98466 -2.009642,-0.98466 0,0 0.145304,-0.80724 0.661935,-1.14627 0.516633,-0.33904 0.435909,-1.80549 0.435909,-1.80549 0,0 -5.752173,1.4996 -11.908195,4.85525 -4.979801,2.71449 -8.4512,5.99626 -8.4512,5.99626 z"
       id="path2"
       sodipodi:nodetypes="csscsccccsssssscsccsssssssccssczcssssscsccsccscssscssssssscscsccsssssssssscsscscscc" /><path
       style="display:inline;fill:#37c837;fill-opacity:1;stroke:#000000;stroke-width:1.79;stroke-linecap:round;stroke-opacity:1;paint-order:stroke fill markers"
       d="m 112.84479,106.7263 c 0,0 -1.2237,2.8112 -0.0331,3.5388 1.19062,0.72761 4.23333,0.89297 4.69635,1.09141 0.46302,0.19844 0.29766,-0.0331 0.56224,0.46302 0.26459,0.49609 2.21589,4.46484 4.63021,6.31693 2.41432,1.85208 5.15938,3.27422 5.88698,3.27422 0.7276,0 0.95912,-0.42995 0.95912,-0.42995 0,0 -2.61277,-5.32474 -6.94532,-8.4336 -4.33255,-3.10885 -9.75651,-5.82083 -9.75651,-5.82083 z"
       id="path3" /><path
       style="display:inline;fill:#37c837;fill-opacity:1;stroke:#000000;stroke-width:1.79;stroke-linecap:round;stroke-opacity:1;paint-order:stroke fill markers"
       d="m 132.50729,124.75769 c 0,0 -0.21563,2.57304 0.082,4.95429 0.29766,2.38125 1.12448,2.6789 1.15755,3.10885 0.0331,0.42995 -1.38906,2.57969 -1.9513,3.80339 -0.56224,1.22369 -0.99219,3.30729 -0.39687,4.92786 0.59531,1.62057 2.97656,3.50573 2.87734,6.38307 -0.0992,2.87735 -2.48047,3.73724 -1.65365,6.15157 0.82683,2.41432 3.57816,5.82732 3.57816,5.82732 0,0 2.71279,-11.31887 0.88867,-20.48621 -1.82411,-9.16735 -4.58193,-14.67014 -4.58193,-14.67014 z"
       id="path4"
       sodipodi:nodetypes="csssssscsc" /><path
       style="fill:#ffffff;fill-opacity:0.493069;stroke:none;stroke-width:2.2106;stroke-linecap:round;stroke-dasharray:none;stroke-opacity:1;paint-order:stroke fill markers"
       d="m 117.86668,115.11937 c 1.4608,0.36593 5.9986,-1.40191 7.62151,-0.21295 3.04825,2.23319 -3.24066,9.16826 0.64416,9.11916 9.05626,-0.11445 7.29947,9.42087 4.06419,10.05288 -7.27902,1.42194 -10.98154,-3.15986 -10.98154,-3.15986 0,0 7.38611,11.53344 1.11782,11.69144 -6.26829,0.15799 -14.68407,-7.74163 -12.65126,-11.69144 0,0 -3.17121,1.42194 -8.398481,-3.47582 -5.227261,-4.89777 -7.234059,-17.37916 0.955021,-14.06131 8.18909,3.31783 -2.663133,-2.84387 4.25607,-5.37175 6.34882,-2.3195 13.37251,7.10965 13.37251,7.10965 z"
       id="path22"
       sodipodi:nodetypes="cssscscsssc" /><ellipse
       style="display:inline;fill:#ffffff;fill-opacity:1;stroke:#000000;stroke-width:1.85279;stroke-linecap:round;stroke-dasharray:none;stroke-opacity:1;paint-order:stroke fill markers"
       id="path5"
       cx="92.714241"
       cy="140.43404"
       rx="9.9239054"
       ry="11.964866"
       transform="matrix(1,0,0.062096,0.99807018,0,0)" /><ellipse
       style="fill:#ffffff;fill-opacity:1;stroke:#000000;stroke-width:1.86537;stroke-linecap:round;stroke-dasharray:none;stroke-opacity:1;paint-order:stroke fill markers"
       id="ellipse5"
       cx="96.303162"
       cy="133.7964"
       rx="8.8681021"
       ry="10.837675"
       transform="matrix(1,0,0.17455363,0.98464767,0,0)" /><ellipse
       style="fill:#000000;fill-opacity:1;stroke:none;stroke-width:2.30619;stroke-linecap:round;stroke-dasharray:none;stroke-opacity:1;paint-order:stroke fill markers"
       id="path6"
       cx="60.345005"
       cy="160.06786"
       rx="1.6864861"
       ry="2.4087667"
       transform="rotate(-17.273652)" /><ellipse
       style="fill:#000000;fill-opacity:1;stroke:none;stroke-width:2.30752;stroke-linecap:round;stroke-dasharray:none;stroke-opacity:1;paint-order:stroke fill markers"
       id="ellipse6"
       cx="62.680977"
       cy="159.17584"
       rx="1.6580061"
       ry="2.4529743"
       transform="matrix(0.95329641,-0.30203635,0.34747764,0.93768827,0,0)" /><path
       style="fill:#ffffff;fill-opacity:0.493069;stroke:none;stroke-width:1.9849;stroke-linecap:round;stroke-dasharray:none;stroke-opacity:1;paint-order:stroke fill markers"
       d="m 79.634573,161.1607 c -5.145613,4.74823 -7.119204,20.71953 0.471913,21.43896 7.591117,0.71943 12.517898,-4.46045 12.517898,-4.46045 0,0 0.940877,8.20147 11.451116,8.05759 10.51023,-0.14388 11.26805,-8.48925 11.26805,-8.48925 0,0 6.08228,-2.84086 8.46671,-5.86245 2.38442,-3.02161 0.22404,-6.99925 -2.39504,-6.27983 -2.6191,0.71943 3.77771,-0.38528 4.34612,-4.41408 0.56841,-4.0288 -6.11861,-11.933 -16.45957,-7.04088 -10.340943,4.89211 -3.84192,-6.47485 -14.864139,-0.71943 -11.022212,5.75543 -11.782619,-2.73383 -18.252394,4.46045 -6.469778,7.19429 3.449336,3.30937 3.449336,3.30937 z"
       id="path21"
       sodipodi:nodetypes="cscscssssssc" /><path
       style="fill:#ffffff;fill-opacity:0.493069;stroke:none;stroke-width:2.2106;stroke-linecap:round;stroke-dasharray:none;stroke-opacity:1;paint-order:stroke fill markers"
       d="m 59.234813,127.68708 c -6.951661,1.89592 -13.903321,17.53715 -6.1617,18.95909 7.741623,1.42192 9.953514,-3.15986 9.953514,-3.15986 0,0 -3.633822,11.53344 2.68587,11.69144 6.31969,0.15799 12.165406,-7.74163 8.847567,-11.69144 0,0 3.633823,1.42194 7.267645,-3.47582 3.633823,-4.89777 1.579923,-17.37916 -5.52973,-14.06131 -7.109653,3.31783 1.737915,-2.84387 -6.003707,-5.37175 -7.103444,-2.3195 -11.059459,7.10965 -11.059459,7.10965 z"
       id="path20"
       sodipodi:nodetypes="cscscsssc" /><path
       style="display:inline;fill:#000000;fill-opacity:1;stroke:none;stroke-width:1.851;stroke-linecap:round;stroke-dasharray:none;stroke-opacity:1;paint-order:stroke fill markers"
       d="m 98.524218,154.51666 c 0,0 7.739062,0.56224 14.320572,-1.48828 6.58151,-2.05052 12.10469,-6.25078 12.10469,-6.25078 0,0 1.10033,0.63126 -1.27331,2.19108 0,0 0.29766,14.32885 -13.95677,16.94161 -13.526823,2.14973 -11.195182,-11.39363 -11.195182,-11.39363 z"
       id="path7"
       sodipodi:nodetypes="cscccc" /><path
       style="display:inline;fill:#550000;fill-opacity:1;stroke:none;stroke-width:1.851;stroke-linecap:round;stroke-dasharray:none;stroke-opacity:1;paint-order:stroke fill markers"
       d="m 99.582551,155.70729 c 0,0 5.138339,0.63005 11.819059,-1.22203 6.68073,-1.85209 11.31025,-5.04211 11.31025,-5.04211 0,0 -0.072,12.41137 -11.95066,15.16075 -12.92308,2.99111 -11.178649,-8.89661 -11.178649,-8.89661 z"
       id="path8"
       sodipodi:nodetypes="cscsc" /><path
       style="display:inline;fill:#ffaaaa;fill-opacity:1;stroke:none;stroke-width:1.851;stroke-linecap:round;stroke-dasharray:none;stroke-opacity:1;paint-order:stroke fill markers"
       d="m 99.582551,155.70729 c 0,0 3.690569,0.45253 8.882829,-0.53681 2.03093,-0.35801 5.12591,1.12479 5.12591,1.12479 0,0 1.37107,0.71441 5.53243,3.17537 -1.77041,2.23815 -4.41429,4.21942 -8.36252,5.13326 -12.923079,2.99112 -11.178649,-8.89661 -11.178649,-8.89661 z"
       id="path10"
       sodipodi:nodetypes="csccsc" /><path
       style="fill:#000000;fill-opacity:1;stroke:none;stroke-width:1.851;stroke-linecap:round;stroke-dasharray:none;stroke-opacity:1;paint-order:stroke fill markers"
       d="m 107.80352,154.63408 -1.27566,0.52751 c 0,0 2.72852,0.21497 6.66419,1.57096 3.93568,1.35599 5.88698,3.34036 5.88698,3.34036 l 0.66264,-0.73279 c 0,0 -2.25747,-2.23643 -5.84588,-3.4436 -3.53294,-1.18851 -6.09227,-1.26244 -6.09227,-1.26244 z"
       id="path9"
       sodipodi:nodetypes="ccsccsc"
       sodipodi:insensitive="true" /></g></svg>
